<?xml version="1.0" encoding="utf-8"?>
<!-- Generator: Adobe Illustrator 25.0.0, SVG Export Plug-In . SVG Version: 6.00 Build 0)  -->
<svg version="1.1" xmlns="http://www.w3.org/2000/svg" xmlns:xlink="http://www.w3.org/1999/xlink" x="0px" y="0px"
	 viewBox="0 0 587.83 106.31" style="enable-background:new 0 0 587.83 106.31;" xml:space="preserve">
<style type="text/css">
	.st0{display:none;}
	.st1{display:inline;}
	.st2{fill:#E89E9F;}
	.st3{fill:#FFFFFF;}
	.st4{display:inline;fill:#E89E9F;}
	.st5{font-family:'EdwardianScriptITC';}
	.st6{font-size:86.4057px;}
</style>
<g id="Layer_1" class="st0">
	<g class="st1">
		<defs>
			<rect id="SVGID_1_" x="264.42" y="166.03" width="86.58" height="68.72"/>
		</defs>
		<clipPath id="SVGID_2_">
			<use xlink:href="#SVGID_1_"  style="overflow:visible;"/>
		</clipPath>
		<g style="clip-path:url(#SVGID_2_);">
			<text transform="matrix(1 0 0 1 249.1997 226.1124)" class="st5" style="fill:#F5969F; font-size:98.1693px;">E</text>
		</g>
	</g>
	<text transform="matrix(1 0 0 1 387.0459 200.3921)" class="st1 st5" style="font-size:12px;">ELIZABETH</text>
	<text transform="matrix(1 0 0 1 388.6689 231.7705)" class="st1 st5" style="font-size:12px;">Elizabeth</text>
</g>
<g id="Layer_2">
	<g>
		<path class="st2" d="M577.3,73.99c0,0-0.26,0.03-0.79,0.02c-0.53,0-1.31-0.07-2.33-0.19c-2.05-0.25-5.05-0.82-8.94-1.62
			c-7.79-1.58-19.16-4.22-33.8-6.61c-7.32-1.18-15.46-2.26-24.37-2.89c-8.89-0.58-18.6-0.73-28.77,0.81
			c-5.07,0.8-10.25,2.05-15.25,4.14c-2.5,1.05-4.95,2.31-7.26,3.84c-0.59,0.37-1.14,0.79-1.71,1.2l-0.42,0.31l-0.39,0.32
			c-0.24,0.22-0.42,0.41-0.61,0.66c-0.75,0.96-0.73,2.18-0.11,3.32c0.6,1.14,1.6,2.14,2.69,3.03c1.1,0.88,2.31,1.66,3.58,2.35
			c2.55,1.36,5.34,2.45,8.22,2.93c1.42,0.22,2.94,0.3,4.14-0.14c0.59-0.23,1.02-0.59,1.21-1.09c0.2-0.5,0.2-1.16,0.04-1.83
			c-0.15-0.67-0.41-1.36-0.74-2.03c-0.15-0.33-0.35-0.69-0.5-0.97l-0.61-1.01c-0.82-1.28-1.71-2.49-2.83-3.53
			c-2.18-2.11-4.98-3.55-8.06-4.11c-3.07-0.59-6.31-0.51-9.54-0.12c-6.49,0.77-13.01,2.59-19.83,3.71
			c-3.4,0.57-6.94,0.93-10.53,0.69c-3.57-0.23-7.12-1.04-10.51-2.34c-6.78-2.66-12.72-7.39-17.32-13.2
			c-2.31-2.91-4.29-6.1-5.85-9.55c-0.76-1.73-1.43-3.52-1.82-5.45l-0.13-0.77c-0.01-0.12-0.02-0.22-0.03-0.36
			c0-0.16-0.01-0.35,0.02-0.49c0.06-0.61,0.28-1.19,0.6-1.68c0.64-0.98,1.54-1.6,2.43-2.08c1.81-0.94,3.74-1.39,5.68-1.63
			c1.95-0.2,3.92-0.25,5.96,0.32c0.51,0.16,1.03,0.36,1.54,0.75c0.5,0.35,1.02,1.09,0.97,1.89c-0.04,0.76-0.38,1.32-0.71,1.76
			c-0.34,0.45-0.72,0.82-1.1,1.15c-1.58,1.38-3.42,2.16-5.21,2.91c-3.62,1.44-7.35,2.5-11.11,3.47c-3.77,0.96-7.58,1.79-11.42,2.55
			c-7.69,1.51-15.5,2.73-23.41,3.69c-7.91,0.94-15.93,1.65-24.03,1.83c-4.05,0.08-8.13,0.03-12.21-0.38
			c-2.04-0.21-4.09-0.51-6.1-1.06c-1.01-0.28-2.01-0.63-2.97-1.13c-0.94-0.51-1.91-1.2-2.42-2.32c-0.4-1.03-0.67-2.18-0.32-3.36
			c0.17-0.58,0.54-1.11,1-1.5c0.46-0.38,0.99-0.64,1.53-0.8c1.08-0.33,2.17-0.35,3.24-0.26c1.07,0.1,2.11,0.34,3.12,0.7
			c1,0.37,1.98,0.85,2.83,1.54c0.83,0.68,1.64,1.67,1.66,2.92c0,0.61-0.14,1.2-0.55,1.72c-0.38,0.48-0.87,0.79-1.35,1.05
			c-0.98,0.5-2,0.79-3.02,1.04c-4.1,0.92-8.26,1.18-12.41,1.5c-4.15,0.28-8.32,0.48-12.49,0.7c-8.34,0.44-16.71,0.86-25.08,1.61
			c-8.37,0.73-16.75,1.68-25.09,2.93c-16.69,2.51-33.28,6.24-49.27,11.82c-4.01,1.38-7.92,2.94-11.87,4.51
			c-3.96,1.55-7.97,2.99-12.04,4.24c-4.07,1.24-8.2,2.33-12.41,3.04c-4.2,0.7-8.51,1.13-12.83,0.62c-2.15-0.26-4.31-0.77-6.31-1.75
			c-1.99-0.98-3.8-2.48-4.96-4.45c-1.17-1.96-1.64-4.24-1.65-6.43c-0.01-2.21,0.4-4.38,1.06-6.44c1.33-4.13,3.55-7.9,6.33-11.17
			c1.4-1.63,2.95-3.13,4.7-4.43c1.7-1.27,3.58-2.4,5.52-3.29c3.91-1.79,8.25-2.73,12.59-2.4c2.16,0.17,4.32,0.65,6.33,1.57
			c2,0.92,3.87,2.32,5.1,4.27c1.25,1.93,1.67,4.38,1.27,6.6c-0.38,2.23-1.39,4.24-2.61,6c-2.49,3.53-5.78,6.23-9.19,8.61
			c-3.42,2.35-7.08,4.4-10.97,5.87c-3.88,1.47-8.02,2.41-12.22,2.38c-4.18-0.02-8.46-1.06-11.99-3.46
			c-3.54-2.35-6.15-6.21-6.78-10.45c-0.69-4.24,0.52-8.55,2.64-12.06c2.15-3.52,4.98-6.48,8.19-8.92
			c6.46-4.85,14.32-7.39,22.14-7.85c1.97-0.1,3.93-0.08,5.93,0.22c0.5,0.08,1,0.18,1.51,0.32c0.52,0.16,1.02,0.29,1.64,0.72
			c0.15,0.11,0.33,0.25,0.5,0.5c0.18,0.19,0.32,0.75,0.27,1.01c-0.03,0.55-0.37,1.04-0.67,1.29c-0.62,0.53-1.2,0.68-1.75,0.82
			c-2.19,0.44-4.22,0.09-6.16-0.59c-1.92-0.71-3.73-1.94-4.93-3.69c-1.22-1.75-1.7-3.91-1.62-5.92c0.06-1.97,0.56-4.03,1.51-5.78
			c0.94-1.78,2.33-3.28,3.89-4.46c1.56-1.18,3.3-2.06,5.07-2.73c3.56-1.34,7.27-1.91,10.94-2.08c3.67-0.14,7.33,0.11,10.91,0.92
			c1.78,0.43,3.55,0.95,5.24,1.98c0.42,0.27,0.84,0.57,1.22,0.98c0.38,0.4,0.75,0.93,0.89,1.63c0.15,0.7-0.06,1.44-0.37,1.95
			c-0.31,0.53-0.7,0.91-1.09,1.23c-0.07,0.06-0.24,0.19-0.31,0.24c-0.08,0.06-0.17,0.13-0.31,0.21c-0.25,0.16-0.47,0.27-0.71,0.38
			c-0.47,0.21-0.94,0.37-1.41,0.48c-0.94,0.23-1.87,0.31-2.79,0.34c-1.83,0.04-3.59-0.16-5.32-0.44c-3.46-0.57-6.78-1.48-10.02-2.47
			c-1.62-0.5-3.23-1.02-4.81-1.56c-0.79-0.26-1.58-0.53-2.36-0.79c-0.39-0.13-0.78-0.25-1.15-0.36c-0.3-0.08-0.78-0.18-1.18-0.28
			c-6.39-1.56-12.77-2.58-19.06-2.77c-6.26-0.17-12.5,0.45-18.03,2.65c-1.36,0.57-2.71,1.19-3.94,1.97
			c-0.63,0.36-1.22,0.79-1.85,1.21c-0.59,0.44-1.17,0.85-1.74,1.31c-2.27,1.82-4.28,3.9-5.87,6.23c-1.6,2.32-2.77,4.89-3.29,7.56
			c-0.52,2.65-0.39,5.42,0.62,7.82c0.5,1.19,1.21,2.28,2.09,3.2c0.89,0.92,1.94,1.59,3.12,2.19c1.13,0.58,2.34,1.02,3.55,1.24
			c1.2,0.21,2.48,0.18,3.43-0.31c1.03-0.57,0.94-1.23-0.19-1.62c-0.13-0.05-0.26-0.08-0.4-0.11c-0.06-0.01-0.15-0.04-0.19-0.04
			l-0.24-0.03c-0.32-0.05-0.62-0.08-0.92-0.11c-0.62-0.06-1.24-0.11-1.85-0.17c-2.49-0.18-4.94-0.36-7.35-0.54
			c-4.82-0.34-9.46-0.68-13.92-1c-8.92-0.66-17.12-1.33-24.51-2.08c-14.78-1.47-26.35-3.08-34.16-4.62
			c-3.91-0.77-6.88-1.49-8.85-2.09c-0.99-0.27-1.73-0.54-2.22-0.7c-0.5-0.17-0.75-0.25-0.75-0.25l0.07-0.19c0,0,0.25,0.08,0.75,0.24
			c0.5,0.15,1.23,0.42,2.22,0.67c1.97,0.57,4.94,1.25,8.85,1.96c7.81,1.44,19.39,2.89,34.17,4.16c7.39,0.62,15.58,1.27,24.51,1.86
			c4.46,0.29,9.11,0.59,13.93,0.9c2.41,0.16,4.87,0.32,7.36,0.49c0.63,0.05,1.26,0.11,1.9,0.16c0.32,0.03,0.65,0.06,0.96,0.11
			l0.24,0.03c0.12,0.02,0.18,0.04,0.28,0.06c0.17,0.03,0.35,0.08,0.52,0.14c0.35,0.11,0.7,0.28,1.03,0.55
			c0.32,0.26,0.64,0.67,0.7,1.2c0.07,0.52-0.14,1.01-0.41,1.34c-0.27,0.34-0.6,0.57-0.94,0.76c-1.37,0.7-2.85,0.67-4.22,0.46
			c-1.38-0.24-2.68-0.71-3.92-1.34c-1.2-0.6-2.46-1.38-3.46-2.41c-1.01-1.03-1.82-2.25-2.39-3.59c-1.16-2.68-1.31-5.72-0.76-8.59
			c0.54-2.89,1.78-5.64,3.45-8.1c1.66-2.48,3.76-4.68,6.11-6.59c0.58-0.49,1.21-0.94,1.82-1.4c0.61-0.41,1.23-0.87,1.9-1.27
			c1.31-0.84,2.72-1.5,4.15-2.11c5.81-2.35,12.24-3.03,18.66-2.89c6.44,0.16,12.96,1.16,19.43,2.69c0.41,0.1,0.74,0.16,1.24,0.29
			c0.43,0.12,0.83,0.25,1.23,0.37c0.79,0.26,1.59,0.52,2.38,0.78c1.58,0.52,3.17,1.03,4.78,1.51c3.21,0.95,6.47,1.82,9.79,2.34
			c1.65,0.26,3.33,0.43,4.96,0.38c1.61-0.05,3.26-0.32,4.3-1.2c0.58-0.47,0.87-0.99,0.77-1.27c-0.04-0.35-0.57-0.9-1.21-1.29
			c-1.32-0.81-2.97-1.33-4.62-1.71c-3.34-0.75-6.86-1-10.37-0.86c-3.5,0.16-7.03,0.72-10.3,1.96c-3.25,1.22-6.29,3.25-7.87,6.25
			c-0.4,0.74-0.7,1.53-0.91,2.35c-0.1,0.41-0.19,0.84-0.24,1.23c-0.06,0.48-0.1,0.85-0.11,1.29c-0.06,1.69,0.33,3.35,1.27,4.69
			c0.92,1.34,2.35,2.34,3.95,2.93c1.58,0.58,3.43,0.84,4.97,0.51c0.36-0.08,0.72-0.23,0.81-0.34c0.05-0.06,0,0-0.01,0.07
			c-0.02,0.02,0.05,0.34,0.09,0.34c0.04,0.06,0.03,0.03-0.01,0.01c-0.16-0.12-0.58-0.29-0.97-0.39c-0.4-0.11-0.84-0.2-1.28-0.26
			c-1.77-0.27-3.64-0.29-5.5-0.19c-7.42,0.44-14.92,2.89-20.97,7.45c-3,2.29-5.68,5.11-7.65,8.32c-1.94,3.2-2.98,6.99-2.4,10.66
			c0.54,3.66,2.76,6.99,5.88,9.09c3.12,2.13,6.99,3.11,10.87,3.14c3.89,0.04,7.8-0.82,11.51-2.21c3.72-1.4,7.25-3.35,10.58-5.62
			c3.3-2.28,6.45-4.89,8.73-8.1c1.12-1.6,2-3.38,2.32-5.23c0.34-1.84,0-3.74-0.99-5.3c-0.98-1.57-2.55-2.78-4.3-3.59
			c-1.76-0.82-3.72-1.27-5.69-1.43c-3.97-0.31-8.04,0.54-11.72,2.19c-1.85,0.84-3.58,1.86-5.24,3.08c-1.62,1.18-3.11,2.6-4.44,4.14
			c-2.66,3.09-4.81,6.69-6.08,10.56c-0.63,1.93-1.02,3.95-1.02,5.95c0,2,0.41,3.99,1.4,5.67c0.98,1.69,2.53,3,4.31,3.9
			c1.79,0.89,3.8,1.39,5.83,1.65c4.09,0.52,8.3,0.14,12.43-0.53c4.14-0.68,8.23-1.72,12.27-2.92c4.04-1.21,8.03-2.62,11.97-4.13
			c3.94-1.54,7.92-3.07,11.95-4.43c16.1-5.5,32.77-9.15,49.51-11.57c16.75-2.43,33.58-3.53,50.25-4.46
			c4.17-0.23,8.33-0.46,12.47-0.75c4.13-0.33,8.29-0.62,12.27-1.53c0.98-0.25,1.96-0.54,2.82-1c0.42-0.23,0.81-0.51,1.07-0.84
			c0.24-0.29,0.37-0.76,0.36-1.18c-0.01-0.86-0.62-1.65-1.36-2.25c-0.75-0.6-1.65-1.04-2.58-1.37c-1.85-0.63-3.95-0.91-5.75-0.38
			c-0.89,0.27-1.63,0.84-1.85,1.66c-0.24,0.81-0.04,1.79,0.3,2.64c0.35,0.77,1.12,1.37,1.97,1.81c0.85,0.44,1.79,0.77,2.75,1.02
			c1.92,0.51,3.93,0.79,5.93,0.99c4.01,0.37,8.06,0.4,12.08,0.3c8.05-0.23,16.02-0.98,23.89-1.97c7.87-1,15.65-2.27,23.28-3.82
			c3.82-0.78,7.6-1.63,11.32-2.61c3.72-0.98,7.4-2.05,10.89-3.47c1.72-0.73,3.45-1.5,4.74-2.65c0.65-0.54,1.25-1.3,1.24-1.72
			c0-0.17-0.06-0.31-0.32-0.52c-0.25-0.19-0.62-0.35-1.01-0.47c-1.62-0.46-3.5-0.45-5.28-0.25c-1.78,0.22-3.57,0.66-5.08,1.45
			c-0.74,0.4-1.42,0.91-1.79,1.51c-0.39,0.6-0.42,1.2-0.21,2.06c0.34,1.72,0.98,3.43,1.71,5.07c1.49,3.28,3.41,6.37,5.65,9.16
			c4.44,5.6,10.16,10.1,16.6,12.62c3.22,1.24,6.59,2.02,9.98,2.25c3.38,0.24,6.77-0.09,10.13-0.64c6.71-1.07,13.25-2.88,19.92-3.65
			c3.33-0.38,6.73-0.48,10.05,0.17c3.32,0.61,6.47,2.23,8.85,4.56c1.21,1.13,2.21,2.5,3.07,3.86l0.61,1.01
			c0.22,0.41,0.4,0.73,0.58,1.11c0.36,0.74,0.66,1.52,0.84,2.37c0.18,0.84,0.25,1.8-0.13,2.75c-0.37,0.96-1.26,1.65-2.1,1.95
			c-1.72,0.6-3.38,0.44-4.94,0.21c-3.13-0.53-6.02-1.68-8.7-3.12c-1.34-0.73-2.62-1.56-3.8-2.53c-1.17-0.98-2.28-2.08-3.03-3.52
			c-0.37-0.71-0.64-1.54-0.6-2.42c0.02-0.88,0.35-1.74,0.86-2.39c0.24-0.32,0.56-0.65,0.85-0.9l0.44-0.36l0.44-0.32
			c0.59-0.42,1.17-0.85,1.78-1.23c2.41-1.57,4.94-2.85,7.51-3.9c5.15-2.11,10.43-3.34,15.58-4.11c10.32-1.49,20.09-1.26,29.02-0.62
			c8.95,0.67,17.1,1.89,24.42,3.15c14.64,2.57,25.98,5.34,33.75,7.01c3.88,0.85,6.87,1.44,8.9,1.72c2.03,0.3,3.08,0.21,3.08,0.21
			L577.3,73.99z"/>
	</g>
</g>
<g id="Layer_4" class="st0">
	<g class="st1">
		<path class="st3" d="M728.99,485.93c0,0-0.26,0.03-0.79,0.02c-0.53,0-1.31-0.07-2.33-0.19c-2.05-0.25-5.05-0.82-8.94-1.62
			c-7.79-1.58-19.16-4.22-33.8-6.61c-7.32-1.18-15.46-2.26-24.37-2.89c-8.89-0.58-18.6-0.73-28.77,0.81
			c-5.07,0.8-10.25,2.05-15.25,4.14c-2.5,1.05-4.95,2.31-7.26,3.84c-0.59,0.37-1.14,0.79-1.71,1.2l-0.42,0.31l-0.39,0.32
			c-0.24,0.22-0.42,0.41-0.61,0.66c-0.75,0.96-0.73,2.18-0.11,3.32c0.6,1.14,1.6,2.14,2.69,3.03c1.1,0.88,2.31,1.66,3.58,2.35
			c2.55,1.36,5.34,2.45,8.22,2.93c1.42,0.22,2.94,0.3,4.14-0.14c0.59-0.23,1.02-0.59,1.21-1.09c0.2-0.5,0.2-1.16,0.04-1.83
			c-0.15-0.67-0.41-1.36-0.74-2.03c-0.15-0.33-0.35-0.69-0.5-0.97l-0.61-1.01c-0.82-1.28-1.71-2.49-2.83-3.53
			c-2.18-2.11-4.98-3.55-8.06-4.11c-3.07-0.59-6.31-0.51-9.54-0.12c-6.49,0.77-13.01,2.59-19.83,3.71
			c-3.4,0.57-6.94,0.93-10.53,0.69c-3.57-0.23-7.12-1.04-10.51-2.34c-6.78-2.66-12.72-7.39-17.32-13.2
			c-2.31-2.91-4.29-6.1-5.85-9.55c-0.76-1.73-1.43-3.52-1.82-5.45l-0.13-0.77c-0.01-0.12-0.02-0.22-0.03-0.36
			c0-0.16-0.01-0.35,0.02-0.49c0.06-0.61,0.28-1.19,0.6-1.68c0.64-0.98,1.54-1.6,2.43-2.08c1.81-0.94,3.74-1.39,5.68-1.63
			c1.95-0.2,3.92-0.25,5.96,0.32c0.51,0.16,1.03,0.36,1.54,0.75c0.5,0.35,1.02,1.09,0.97,1.89c-0.04,0.76-0.38,1.32-0.71,1.76
			c-0.34,0.45-0.72,0.82-1.1,1.15c-1.58,1.38-3.42,2.16-5.21,2.91c-3.62,1.44-7.35,2.5-11.11,3.47c-3.77,0.96-7.58,1.79-11.42,2.55
			c-7.69,1.51-15.5,2.73-23.41,3.69c-7.91,0.94-15.93,1.65-24.03,1.83c-4.05,0.08-8.13,0.03-12.21-0.38
			c-2.04-0.21-4.09-0.51-6.1-1.06c-1.01-0.28-2.01-0.63-2.97-1.13c-0.94-0.51-1.91-1.2-2.42-2.32c-0.4-1.03-0.67-2.18-0.32-3.36
			c0.17-0.58,0.54-1.11,1-1.5c0.46-0.38,0.99-0.64,1.53-0.8c1.08-0.33,2.17-0.35,3.24-0.26c1.07,0.1,2.11,0.34,3.12,0.7
			c1,0.37,1.98,0.85,2.83,1.54c0.83,0.68,1.64,1.67,1.66,2.92c0,0.61-0.14,1.2-0.55,1.72c-0.38,0.48-0.87,0.79-1.35,1.05
			c-0.98,0.5-2,0.79-3.02,1.04c-4.1,0.92-8.26,1.18-12.41,1.5c-4.15,0.28-8.32,0.48-12.49,0.7c-8.34,0.44-16.71,0.86-25.08,1.61
			c-8.37,0.73-16.75,1.68-25.09,2.93c-16.69,2.51-33.28,6.24-49.27,11.82c-4.01,1.38-7.92,2.94-11.87,4.51
			c-3.96,1.55-7.97,2.99-12.04,4.24c-4.07,1.24-8.2,2.33-12.41,3.04c-4.2,0.7-8.51,1.13-12.83,0.62c-2.15-0.26-4.31-0.77-6.31-1.75
			c-1.99-0.98-3.8-2.48-4.96-4.45c-1.17-1.96-1.64-4.24-1.65-6.43c-0.01-2.21,0.4-4.38,1.06-6.44c1.33-4.13,3.55-7.9,6.33-11.17
			c1.4-1.63,2.95-3.13,4.7-4.43c1.7-1.27,3.58-2.4,5.52-3.29c3.91-1.79,8.25-2.73,12.59-2.4c2.16,0.17,4.32,0.65,6.33,1.57
			c2,0.92,3.87,2.32,5.1,4.27c1.25,1.93,1.67,4.38,1.27,6.6c-0.38,2.23-1.39,4.24-2.61,6c-2.49,3.53-5.78,6.23-9.19,8.61
			c-3.42,2.35-7.08,4.4-10.97,5.87c-3.89,1.47-8.02,2.41-12.22,2.38c-4.18-0.02-8.46-1.06-11.99-3.46
			c-3.54-2.35-6.15-6.21-6.78-10.45c-0.69-4.24,0.52-8.55,2.64-12.06c2.15-3.52,4.98-6.48,8.19-8.92
			c6.46-4.85,14.32-7.39,22.14-7.85c1.97-0.1,3.93-0.08,5.93,0.22c0.5,0.08,1,0.18,1.51,0.32c0.52,0.16,1.02,0.29,1.64,0.72
			c0.15,0.11,0.33,0.25,0.5,0.5c0.18,0.19,0.32,0.75,0.27,1.01c-0.03,0.55-0.37,1.04-0.67,1.29c-0.62,0.53-1.2,0.68-1.75,0.82
			c-2.19,0.44-4.22,0.09-6.16-0.59c-1.92-0.71-3.73-1.94-4.93-3.69c-1.22-1.75-1.7-3.91-1.62-5.92c0.06-1.97,0.56-4.03,1.51-5.78
			c0.94-1.78,2.33-3.28,3.89-4.46c1.56-1.18,3.3-2.06,5.07-2.73c3.56-1.34,7.27-1.91,10.94-2.08c3.67-0.14,7.33,0.11,10.91,0.92
			c1.78,0.43,3.55,0.95,5.24,1.98c0.42,0.27,0.84,0.57,1.22,0.98c0.38,0.4,0.75,0.93,0.89,1.63c0.15,0.7-0.06,1.44-0.37,1.95
			c-0.31,0.53-0.7,0.91-1.09,1.23c-0.07,0.06-0.24,0.19-0.31,0.24c-0.08,0.06-0.17,0.13-0.31,0.21c-0.25,0.16-0.47,0.27-0.71,0.38
			c-0.47,0.21-0.94,0.37-1.41,0.48c-0.94,0.23-1.87,0.31-2.79,0.34c-1.83,0.04-3.59-0.16-5.32-0.44c-3.46-0.57-6.78-1.48-10.02-2.47
			c-1.62-0.5-3.23-1.02-4.81-1.56c-0.79-0.26-1.58-0.53-2.36-0.79c-0.39-0.13-0.78-0.25-1.15-0.36c-0.3-0.08-0.78-0.18-1.18-0.28
			c-6.39-1.56-12.77-2.58-19.06-2.77c-6.26-0.17-12.5,0.45-18.03,2.65c-1.36,0.57-2.71,1.19-3.94,1.97
			c-0.63,0.36-1.22,0.79-1.85,1.21c-0.59,0.44-1.17,0.85-1.74,1.31c-2.27,1.82-4.28,3.9-5.87,6.23c-1.6,2.32-2.77,4.89-3.29,7.56
			c-0.52,2.65-0.39,5.42,0.62,7.82c0.5,1.19,1.21,2.28,2.09,3.2c0.89,0.92,1.94,1.59,3.12,2.19c1.13,0.58,2.34,1.02,3.55,1.24
			c1.2,0.21,2.48,0.18,3.43-0.31c1.03-0.57,0.94-1.23-0.19-1.62c-0.13-0.05-0.26-0.08-0.4-0.11c-0.06-0.01-0.15-0.04-0.19-0.04
			l-0.24-0.03c-0.32-0.05-0.62-0.08-0.92-0.11c-0.62-0.06-1.24-0.11-1.85-0.17c-2.49-0.18-4.94-0.36-7.35-0.54
			c-4.82-0.34-9.46-0.68-13.92-1c-8.92-0.66-17.12-1.33-24.51-2.08c-14.78-1.47-26.35-3.08-34.16-4.62
			c-3.91-0.77-6.88-1.49-8.85-2.09c-0.99-0.27-1.73-0.54-2.22-0.7c-0.5-0.17-0.75-0.25-0.75-0.25l0.07-0.19c0,0,0.25,0.08,0.75,0.24
			c0.5,0.15,1.23,0.42,2.22,0.67c1.97,0.57,4.94,1.25,8.85,1.96c7.81,1.44,19.39,2.89,34.17,4.16c7.39,0.62,15.58,1.27,24.51,1.86
			c4.46,0.29,9.11,0.59,13.93,0.9c2.41,0.16,4.87,0.32,7.36,0.49c0.63,0.05,1.26,0.11,1.9,0.16c0.32,0.03,0.65,0.06,0.96,0.11
			l0.24,0.03c0.12,0.02,0.18,0.04,0.28,0.06c0.17,0.03,0.35,0.08,0.52,0.14c0.35,0.11,0.7,0.28,1.03,0.55
			c0.32,0.26,0.64,0.67,0.7,1.2c0.07,0.52-0.14,1.01-0.41,1.34c-0.27,0.34-0.6,0.57-0.94,0.76c-1.37,0.7-2.85,0.67-4.22,0.46
			c-1.38-0.24-2.68-0.71-3.92-1.34c-1.2-0.6-2.46-1.38-3.46-2.41c-1.01-1.03-1.82-2.25-2.39-3.59c-1.16-2.68-1.31-5.72-0.76-8.59
			c0.54-2.89,1.78-5.64,3.45-8.1c1.66-2.48,3.76-4.68,6.11-6.59c0.58-0.49,1.21-0.94,1.82-1.4c0.61-0.41,1.23-0.87,1.9-1.27
			c1.31-0.84,2.72-1.5,4.15-2.11c5.81-2.35,12.24-3.03,18.66-2.89c6.44,0.16,12.96,1.16,19.43,2.69c0.41,0.1,0.74,0.16,1.24,0.29
			c0.43,0.12,0.83,0.25,1.23,0.37c0.79,0.26,1.59,0.52,2.38,0.78c1.58,0.52,3.17,1.03,4.78,1.51c3.2,0.95,6.47,1.82,9.79,2.34
			c1.65,0.26,3.33,0.43,4.96,0.38c1.61-0.05,3.26-0.32,4.3-1.2c0.58-0.47,0.87-0.99,0.77-1.27c-0.04-0.35-0.57-0.9-1.21-1.29
			c-1.32-0.81-2.97-1.33-4.62-1.71c-3.34-0.75-6.86-1-10.37-0.86c-3.5,0.16-7.03,0.72-10.3,1.96c-3.25,1.22-6.29,3.25-7.87,6.25
			c-0.4,0.74-0.7,1.53-0.91,2.35c-0.1,0.41-0.19,0.84-0.24,1.23c-0.06,0.48-0.1,0.85-0.11,1.29c-0.06,1.69,0.33,3.35,1.27,4.69
			c0.92,1.34,2.35,2.34,3.95,2.93c1.58,0.58,3.43,0.84,4.97,0.51c0.36-0.08,0.72-0.23,0.81-0.34c0.05-0.06,0,0-0.01,0.07
			c-0.02,0.02,0.05,0.34,0.09,0.34c0.04,0.06,0.03,0.03-0.01,0.01c-0.16-0.12-0.58-0.29-0.97-0.39c-0.4-0.11-0.84-0.2-1.28-0.26
			c-1.77-0.27-3.64-0.29-5.5-0.19c-7.42,0.44-14.92,2.89-20.97,7.45c-3,2.29-5.68,5.11-7.65,8.32c-1.94,3.2-2.98,6.99-2.4,10.66
			c0.54,3.66,2.76,6.99,5.88,9.09c3.12,2.13,6.99,3.11,10.87,3.14c3.89,0.04,7.8-0.82,11.51-2.21c3.72-1.4,7.25-3.35,10.58-5.62
			c3.3-2.28,6.45-4.89,8.73-8.1c1.12-1.6,2-3.38,2.32-5.23c0.34-1.84,0-3.74-0.99-5.3c-0.98-1.57-2.55-2.78-4.3-3.59
			c-1.76-0.82-3.72-1.27-5.69-1.43c-3.97-0.31-8.04,0.54-11.72,2.19c-1.85,0.84-3.58,1.86-5.24,3.08c-1.62,1.18-3.11,2.6-4.44,4.14
			c-2.66,3.09-4.81,6.69-6.08,10.56c-0.63,1.93-1.02,3.95-1.02,5.95c0,2,0.41,3.99,1.4,5.67c0.98,1.69,2.53,3,4.31,3.9
			c1.79,0.89,3.8,1.39,5.83,1.65c4.09,0.52,8.3,0.14,12.43-0.53c4.14-0.68,8.23-1.72,12.27-2.92c4.04-1.21,8.03-2.62,11.97-4.13
			c3.94-1.54,7.92-3.07,11.95-4.43c16.1-5.5,32.77-9.15,49.51-11.57c16.75-2.43,33.58-3.53,50.25-4.46
			c4.17-0.23,8.33-0.46,12.47-0.75c4.13-0.33,8.29-0.62,12.27-1.53c0.98-0.25,1.96-0.54,2.82-1c0.42-0.23,0.81-0.51,1.07-0.84
			c0.24-0.29,0.37-0.76,0.36-1.18c-0.01-0.86-0.62-1.65-1.36-2.25c-0.75-0.6-1.65-1.04-2.58-1.37c-1.85-0.63-3.95-0.91-5.75-0.38
			c-0.89,0.27-1.63,0.84-1.85,1.66c-0.24,0.81-0.04,1.79,0.3,2.64c0.35,0.77,1.12,1.37,1.97,1.81c0.85,0.44,1.79,0.77,2.75,1.02
			c1.92,0.51,3.93,0.79,5.93,0.99c4.01,0.37,8.06,0.4,12.08,0.3c8.05-0.23,16.02-0.98,23.89-1.97c7.87-1,15.65-2.27,23.28-3.82
			c3.82-0.78,7.6-1.63,11.32-2.61c3.72-0.98,7.4-2.05,10.89-3.47c1.72-0.73,3.45-1.5,4.74-2.65c0.65-0.54,1.25-1.3,1.24-1.72
			c0-0.17-0.06-0.31-0.32-0.52c-0.25-0.19-0.62-0.35-1.01-0.47c-1.62-0.46-3.5-0.45-5.28-0.25c-1.78,0.22-3.57,0.66-5.08,1.45
			c-0.74,0.4-1.42,0.91-1.79,1.51c-0.39,0.6-0.42,1.2-0.21,2.06c0.34,1.72,0.98,3.43,1.71,5.07c1.49,3.28,3.41,6.37,5.65,9.16
			c4.44,5.6,10.16,10.1,16.6,12.62c3.22,1.24,6.59,2.02,9.98,2.25c3.38,0.24,6.77-0.09,10.13-0.64c6.71-1.07,13.25-2.88,19.92-3.65
			c3.33-0.38,6.73-0.48,10.05,0.17c3.32,0.61,6.47,2.23,8.85,4.56c1.21,1.13,2.21,2.5,3.07,3.86l0.61,1.01
			c0.22,0.41,0.4,0.73,0.58,1.11c0.36,0.74,0.66,1.52,0.84,2.37c0.18,0.84,0.25,1.8-0.13,2.75c-0.37,0.96-1.26,1.65-2.1,1.95
			c-1.72,0.6-3.38,0.44-4.94,0.21c-3.13-0.53-6.02-1.68-8.7-3.12c-1.34-0.73-2.62-1.56-3.8-2.53c-1.17-0.98-2.28-2.08-3.03-3.52
			c-0.37-0.71-0.64-1.54-0.6-2.42c0.02-0.88,0.35-1.74,0.86-2.39c0.24-0.32,0.56-0.65,0.85-0.9l0.44-0.36l0.44-0.32
			c0.59-0.42,1.17-0.85,1.78-1.23c2.41-1.57,4.94-2.85,7.51-3.9c5.15-2.11,10.43-3.34,15.58-4.11c10.32-1.49,20.09-1.26,29.02-0.62
			c8.95,0.67,17.1,1.89,24.42,3.15c14.64,2.57,25.98,5.34,33.75,7.01c3.88,0.85,6.87,1.44,8.9,1.72c2.03,0.3,3.08,0.21,3.08,0.21
			L728.99,485.93z"/>
	</g>
</g>
<g id="Layer_3" class="st0">
	<text transform="matrix(1 0 0 1 428.3432 171.5005)" class="st4 st5 st6">Hi, there</text>
</g>
</svg>
